<svg xmlns="http://www.w3.org/2000/svg" width="119.25" height="55.27" viewBox="0 0 119.25 55.27"><title>brand-white</title><path d="M80.63,30.77a11.23,11.23,0,0,1-2.25-7.21V9.68a3.31,3.31,0,0,1,6.61,0v.55L85,24c0,1.94.51,3.15,1.52,3.65a3.23,3.23,0,0,0,3.26-.3,3.29,3.29,0,0,0,1.75-2.06c0-.11,0-.27.07-.48V14.35a11.65,11.65,0,0,1,0-1.48V9.64a3.34,3.34,0,0,0,6.66-.29v1.78h0V30.6a2.15,2.15,0,0,1-.68,1.57,2.21,2.21,0,0,1-1.64.64H93.84a2.23,2.23,0,0,1-1.64-.66c-.44-.43-.66-.71-.66-.83a17,17,0,0,1-3.72,1.84A6.73,6.73,0,0,1,80.63,30.77ZM93,11.15a2.71,2.71,0,0,0,.87.58,2.65,2.65,0,0,0,1,.21,2.6,2.6,0,0,0,1-.21,2.75,2.75,0,0,0,.88-.58,2.89,2.89,0,0,0,.59-.88,2.78,2.78,0,0,0,0-2.07,2.89,2.89,0,0,0-.59-.88A2.78,2.78,0,0,0,95,6.53a2.65,2.65,0,0,0-1,.21,2.55,2.55,0,0,0-.87.58,2.72,2.72,0,0,0-.59.88,2.78,2.78,0,0,0,0,2.07A2.72,2.72,0,0,0,93,11.15ZM15.15,33.87H7.07V3.48A3.31,3.31,0,0,0,6,1,3.42,3.42,0,0,0,3.59,0,3.52,3.52,0,0,0,1,1,3.35,3.35,0,0,0,0,3.48V37.17a3.38,3.38,0,0,0,1,2.48,3.39,3.39,0,0,0,2.47,1H15.15a3.49,3.49,0,0,0,2.45-.94,3.42,3.42,0,0,0,0-4.9A3.45,3.45,0,0,0,15.15,33.87ZM24,12.62a3.45,3.45,0,1,0-3.45-3.45A3.45,3.45,0,0,0,24,12.62Zm21.68,2.64a7.54,7.54,0,0,0-4.84-1.4,7.93,7.93,0,0,0-2.7.45,8.88,8.88,0,0,0-2.2,1.17c-.12.08-.23.17-.34.26a3.89,3.89,0,0,0-.41-.5,3.5,3.5,0,0,0-4.94,0,3.42,3.42,0,0,0-1,2.46v15a.92.92,0,1,1-1.84,0v-15a3.39,3.39,0,0,0-1-2.46,3.5,3.5,0,0,0-4.94,0,3.39,3.39,0,0,0-1,2.46V32.53h0v.14a7.81,7.81,0,0,0,15.61,0V23.34a3.13,3.13,0,0,1,.36-1.52,2.65,2.65,0,0,1,1-1,3.61,3.61,0,0,1,1.78-.4,2.55,2.55,0,0,1,1.5.33,1.62,1.62,0,0,1,.62.87,5.56,5.56,0,0,1,.25,1.75V37.17a3.42,3.42,0,0,0,1,2.46,3.5,3.5,0,0,0,4.94,0,3.39,3.39,0,0,0,1-2.46V23.34A16.39,16.39,0,0,0,48,18.88,7,7,0,0,0,45.66,15.26Zm73.59,2.39c-.16,6.71-3.86,13.09-9.06,17.2a32.52,32.52,0,0,1-2.76,1.93V51.87h0a3.44,3.44,0,0,1-6.87,0h0V40.13a43,43,0,0,1-9.87,2.25,39.31,39.31,0,0,1-32.77-12v6.76a3.42,3.42,0,0,1-1,2.46,3.5,3.5,0,0,1-4.94,0,3.39,3.39,0,0,1-1-2.46V9.44A3.39,3.39,0,0,1,52,7a3.3,3.3,0,0,1,2.47-1,3.34,3.34,0,0,1,2.47,1,3.46,3.46,0,0,1,1,2.47V20.57l5.5-5.31a3.44,3.44,0,0,1,2.47-1,3.15,3.15,0,0,1,2.4,1.11,3.29,3.29,0,0,1,.94,2.19,3.41,3.41,0,0,1-1.3,2.59l-1.8,1.65-3.82,3.51c.47.52,1,1,1.44,1.51a32.12,32.12,0,0,0,2.84,2.48,35.49,35.49,0,0,0,3.89,2.53c.62.34,1.26.67,1.9,1,.32.16.65.3,1,.45l.26.12.25.09A35.24,35.24,0,0,0,90.67,35.6a31.5,31.5,0,0,0,9.87-2.69V10.08a3.67,3.67,0,0,1,1.1-2.64,2.78,2.78,0,0,1,1.6-1c3.83-.74,8.18-1.3,11.56,1.14C118,9.91,119.34,13.82,119.25,17.65Zm-9.75-5c-.34-.08-.15,0,0,0Zm3,4.2s0-.6,0-.65c-.08-.46-.21-.9-.33-1.36,0-.09,0-.16,0-.21a1.09,1.09,0,0,1-.1-.17c-.1-.18-.21-.36-.31-.55l-.1-.19-.14-.12-.37-.34c-.17-.09-.59-.35-.49-.33-.28-.1-.57-.17-.84-.24l-.17,0c-.35,0-.7,0-1,0s-.7,0-1,.07V28.27a19.49,19.49,0,0,0,2.89-3.68,13.24,13.24,0,0,0,1.55-3.47c.17-.57.31-1.15.43-1.74,0,0,.1-.78.1-.7,0-.24,0-.47.06-.71S112.48,17.21,112.46,16.83Z" fill="#fff"/></svg>