<svg xmlns="http://www.w3.org/2000/svg" xmlns:xlink="http://www.w3.org/1999/xlink" width="177.85" height="82.43" viewBox="0 0 177.85 82.43"><defs><linearGradient id="a" x1="301.34" y1="69.02" x2="479.19" y2="69.02" gradientTransform="matrix(1, 0, 0, -1, -301.34, 98.66)" gradientUnits="userSpaceOnUse"><stop offset="0" stop-color="#e4484a"/><stop offset="0.05" stop-color="#e4484a"/><stop offset="0.21" stop-color="#e0385c"/><stop offset="0.32" stop-color="#df3263"/><stop offset="0.41" stop-color="#c53268"/><stop offset="0.61" stop-color="#823375"/><stop offset="0.81" stop-color="#3b3484"/><stop offset="1" stop-color="#3b3484"/></linearGradient><linearGradient id="b" x1="-187.57" y1="176.67" x2="-9.72" y2="176.67" gradientTransform="matrix(1, 0, 0, -1, 187.57, 190.44)" xlink:href="#a"/><linearGradient id="c" x1="151.84" y1="80.51" x2="329.68" y2="80.51" gradientTransform="matrix(1, 0, 0, -1, -151.84, 110.83)" xlink:href="#a"/><linearGradient id="d" x1="191" y1="86.23" x2="368.85" y2="86.23" gradientTransform="matrix(1, 0, 0, -1, -191, 99.91)" xlink:href="#a"/><linearGradient id="e" x1="191" y1="43.74" x2="368.85" y2="43.74" gradientTransform="matrix(1, 0, 0, -1, -191, 84.39)" xlink:href="#a"/><linearGradient id="f" x1="249.14" y1="63.55" x2="426.99" y2="63.55" gradientTransform="matrix(1, 0, 0, -1, -249.14, 99.69)" xlink:href="#a"/><linearGradient id="g" x1="343.61" y1="52.49" x2="521.46" y2="52.49" gradientTransform="matrix(1, 0, 0, -1, -343.61, 98.51)" xlink:href="#a"/></defs><title>brand</title><path d="M146.55,16.6V13.94a5,5,0,0,1-9.92.43v4.82a16.23,16.23,0,0,0,0,2.21V36.92c0,.31-.08.55-.11.72-.19,1.1-1.06,2.12-2.61,3.08a4.83,4.83,0,0,1-4.87.44c-1.5-.74-2.25-2.55-2.25-5.45l0-20.46v-.81a4.93,4.93,0,0,0-9.86,0v20.7c0,4.39,1.14,8,3.35,10.74q3.93,5,10.72,3.58a25.61,25.61,0,0,0,5.56-2.75q0,.27,1,1.23a3.31,3.31,0,0,0,2.44,1h3.16a3.32,3.32,0,0,0,2.45-1,3.2,3.2,0,0,0,1-2.33v-29Z" fill="url(#a)"/><path d="M141.6,9.74a4.08,4.08,0,0,1,2.85,1.18,4,4,0,0,1-4.39,6.58,4.14,4.14,0,0,1-1.31-.88,4,4,0,0,1-.87-4.39,3.85,3.85,0,0,1,.87-1.31,4,4,0,0,1,1.31-.87A3.89,3.89,0,0,1,141.6,9.74Z" fill="url(#b)"/><path d="M22.59,50.51h-12V5.19A4.94,4.94,0,0,0,9,1.46,5.11,5.11,0,0,0,5.35,0a5.27,5.27,0,0,0-3.8,1.48A5,5,0,0,0,0,5.19V55.44a5.12,5.12,0,0,0,5.19,5.19h17.4a5.17,5.17,0,0,0,3.65-1.41,4.81,4.81,0,0,0,1.54-3.62,4.87,4.87,0,0,0-1.54-3.68A5.17,5.17,0,0,0,22.59,50.51Z" fill="url(#c)"/><path d="M35.76,18.81a5.14,5.14,0,1,0-5.14-5.13A5.14,5.14,0,0,0,35.76,18.81Z" fill="url(#d)"/><path d="M71.58,28.15a10.26,10.26,0,0,0-3.48-5.39,11.26,11.26,0,0,0-7.23-2.09,11.8,11.8,0,0,0-4,.68,12.91,12.91,0,0,0-3.27,1.73l-.51.39a5.33,5.33,0,0,0-.61-.74,5.21,5.21,0,0,0-7.36,0,5.05,5.05,0,0,0-1.46,3.67V48.73a1.37,1.37,0,1,1-2.73,0V26.4a5.07,5.07,0,0,0-1.46-3.67,5.21,5.21,0,0,0-7.36,0,5.05,5.05,0,0,0-1.46,3.67V48.74a11.64,11.64,0,0,0,23.28,0V34.8a4.63,4.63,0,0,1,.54-2.26A3.88,3.88,0,0,1,56,31a5.18,5.18,0,0,1,2.64-.6,3.81,3.81,0,0,1,2.24.49,2.41,2.41,0,0,1,.93,1.3,8.33,8.33,0,0,1,.37,2.6V55.44a5.1,5.1,0,0,0,1.45,3.67,5.23,5.23,0,0,0,7.37,0,5.12,5.12,0,0,0,1.45-3.67V34.8a24.35,24.35,0,0,0-.85-6.65Z" fill="url(#e)"/><path d="M171.21,11.35c-5-3.64-11.53-2.8-17.24-1.7-2.69.51-4.22,3.73-3.54,6.22a5.18,5.18,0,0,0,6.23,3.53l1.59-.3s1.17-.17,1.07-.17a22.56,22.56,0,0,1,2.46-.15,13.39,13.39,0,0,1,1.55.06l.25.06a12.8,12.8,0,0,1,1.25.35c-.15,0,.48.36.75.5l.55.5.2.18.15.29.46.82.15.25a2.42,2.42,0,0,0,.07.32c.16.67.36,1.33.49,2,0,.08.07.91.07,1,0,.57,0,1.14,0,1.71,0,.35,0,.69-.08,1,0-.12-.16,1-.16,1a25.29,25.29,0,0,1-.64,2.6,19,19,0,0,1-2.31,5.17,29.54,29.54,0,0,1-7,7.88,44.8,44.8,0,0,1-22.31,8.55,52.62,52.62,0,0,1-25.1-3.24l-.38-.14-.37-.18-1.45-.67c-1-.46-1.91-.95-2.84-1.47a52.36,52.36,0,0,1-5.81-3.76,52.87,52.87,0,0,1-4.22-3.7c-.74-.73-1.46-1.48-2.15-2.25l5.7-5.24L101.27,30a5.07,5.07,0,0,0,2-3.86,4.9,4.9,0,0,0-1.41-3.27,4.7,4.7,0,0,0-3.57-1.65,5.14,5.14,0,0,0-3.69,1.55l-8.2,7.91V14.07A5.12,5.12,0,0,0,84.9,10.4a5.23,5.23,0,0,0-7.37,0,5.12,5.12,0,0,0-1.45,3.67V55.44a5.1,5.1,0,0,0,1.45,3.67,5.23,5.23,0,0,0,7.37,0,5.12,5.12,0,0,0,1.45-3.67V45.35a58.61,58.61,0,0,0,48.87,17.86C145.76,62,156,58.6,164.33,52c7.76-6.13,13.28-15.63,13.51-25.65C178,20.61,176,14.78,171.21,11.35Z" fill="url(#f)"/><path d="M155.08,9.63a5.28,5.28,0,0,0-5.14,5.4V77.34l0,0h0a5.12,5.12,0,0,0,10.24,0v0l0,0V15A5.28,5.28,0,0,0,155.08,9.63Z" fill="url(#g)"/></svg>